<svg width="109" height="44" viewBox="0 0 109 44" fill="none" xmlns="http://www.w3.org/2000/svg">
<path d="M18.1856 2.56836C16.8919 4.80602 16.6472 5.54025 16.4724 7.70798C16.3675 9.10652 16.4374 10.8547 16.6472 11.6239C17.0668 13.0574 16.8337 13.4 16.3325 13.1972C15.8337 13 14.2697 12.6728 8.08116 12.5329C3.71074 12.428 0.0745404 12.3931 0.00461354 12.3931C-0.0653133 12.428 0.668918 13.4769 1.57797 14.7356C2.48702 15.9943 7.59167 23.0919 12.8711 30.5041L22.4511 44L23.0455 42.8812C23.3602 42.2518 24.514 40.0841 25.6328 38.0562C26.7167 36.0283 28.0802 33.3711 28.6746 32.1474C29.5487 30.3293 29.8284 30.0146 30.1431 30.4342C30.3529 30.7139 32.8702 33.8956 35.7722 37.4618L41.0167 44L41.646 43.2308C41.9957 42.7763 42.9047 41.168 43.6739 39.6645C45.3172 36.343 45.457 34.1403 44.3033 31.4132L43.569 29.7L51.0512 18.4068C55.1769 12.1833 59.3026 5.92484 60.2466 4.49134C61.1906 3.05784 62.2395 1.51945 62.5891 1.13486L63.2884 0.365661H56.8551C48.6737 0.330698 46.5409 0.75026 43.5341 3.05785C40.9817 4.94587 39.6881 6.83389 36.4365 13.1273L34.024 17.8124L33.3947 17.0082C33.0101 16.5537 32.2758 15.6447 31.7514 14.9804C26.8216 8.86177 20.4582 0.750258 20.3184 0.365661C20.0037 -0.403534 19.724 -0.0888606 18.1856 2.56836ZM58.7781 3.05785C58.4285 3.30259 50.0373 15.7496 45.3871 22.952C42.7649 27.0078 41.8337 27.8 41.5411 27.2176C41.4337 27 41.0337 26.4 40.6671 25.889C40.1776 25.3645 39.1986 24.1408 38.4644 23.1268C37.1707 21.3087 36.8337 21.4 36.6463 21.6933C36.4503 22 36.2337 22.4 36.0519 22.7422C35.7025 23.4 35.5274 23.4415 36.5414 24.5254C38.6392 26.763 41.5411 30.644 42.0656 31.8677C42.7998 33.6858 42.7299 36.378 41.8558 38.4408C41.4363 39.3848 41.0167 40.154 40.8768 40.1191C40.772 40.1191 38.9539 37.8814 36.8211 35.1892C34.7233 32.4621 32.5206 29.7349 31.9961 29.1056L30.9822 27.9168L32.0311 26.0987C32.5905 25.0848 33.8842 22.6723 34.8981 20.7493C42.0656 7.1136 43.2194 5.43536 46.0165 4.14171C46.9255 3.72215 47.9744 3.23266 48.359 3.05785C49.0233 2.74317 58.1837 2.4285 58.8131 2.70821C58.9529 2.77814 58.9529 2.91799 58.7781 3.05785ZM23.7448 8.51214C25.5629 10.8197 28.325 14.3161 29.8983 16.274L32.8003 19.8752L31.3318 22.8122C30.4927 24.4555 29.7235 25.7841 29.5837 25.7841C29.3739 25.819 27.4859 23.4765 21.3673 15.6796C18.9548 12.6029 18.3254 10.8547 18.5352 8.1625C18.745 6.13462 19.7589 3.51237 20.1785 4.00186C20.3184 4.17667 21.9267 6.20455 23.7448 8.51214ZM17.2066 15.6796C19.0946 16.6236 20.633 18.232 24.444 23.1968C25.8775 25.0498 27.311 26.9029 27.6956 27.3574C28.325 28.1616 28.325 28.1965 26.8215 30.9237C26.0174 32.4621 24.6189 35.0843 23.7448 36.7975C22.4162 39.3848 22.1015 39.8044 21.7868 39.2799C21.612 38.9303 20.8778 37.9164 20.2135 36.9724C19.5492 36.0283 18.2206 34.1403 17.2416 32.7767C16.2976 31.3782 14.1298 28.3714 12.4516 26.0288C10.7733 23.6863 8.88532 21.099 8.25598 20.2249C7.6616 19.3508 6.54277 17.8474 5.80854 16.8684C5.07431 15.8894 4.47993 14.9804 4.47993 14.8405C4.47993 14.6657 6.96233 14.6307 10.0041 14.7007C15.0039 14.8056 15.6333 14.9104 17.2066 15.6796Z" fill="black"/>
<path d="M51.2766 26.0393C50.8045 26.0393 50.4079 25.8878 50.0869 25.5847C49.7848 25.2627 49.6337 24.8648 49.6337 24.3913C49.6337 23.9366 49.7848 23.5577 50.0869 23.2546C50.4079 22.9516 50.8045 22.8 51.2766 22.8C51.7298 22.8 52.1169 22.9516 52.4379 23.2546C52.7589 23.5577 52.9194 23.9366 52.9194 24.3913C52.9194 24.8648 52.7589 25.2627 52.4379 25.5847C52.1169 25.8878 51.7298 26.0393 51.2766 26.0393ZM50.0869 43.259V29.165H52.4662V43.259H50.0869Z" fill="black"/>
<path d="M56.609 43.259V29.165H58.7618L58.9034 31.694C59.3566 30.8036 60.0081 30.1027 60.8578 29.5913C61.7076 29.0798 62.6707 28.824 63.747 28.824C65.4088 28.824 66.7306 29.3355 67.7126 30.3585C68.7134 31.3625 69.2138 32.9158 69.2138 35.0186V43.259H66.8345V35.2743C66.8345 33.8157 66.5324 32.7169 65.9281 31.9781C65.3238 31.2393 64.4174 30.8699 63.2088 30.8699C62.0003 30.8699 60.99 31.3151 60.178 32.2055C59.3849 33.0769 58.9884 34.3271 58.9884 35.9563V43.259H56.609Z" fill="black"/>
<path d="M72.8463 43.259V29.165H74.9991L75.1407 31.694C75.5939 30.8036 76.2454 30.1027 77.0951 29.5913C77.9449 29.0798 78.908 28.824 79.9843 28.824C81.6461 28.824 82.9679 29.3355 83.9499 30.3585C84.9507 31.3625 85.4511 32.9158 85.4511 35.0186V43.259H83.0718V35.2743C83.0718 33.8157 82.7696 32.7169 82.1654 31.9781C81.5611 31.2393 80.6547 30.8699 79.4461 30.8699C78.2376 30.8699 77.2273 31.3151 76.4153 32.2055C75.6222 33.0769 75.2257 34.3271 75.2257 35.9563V43.259H72.8463Z" fill="black"/>
<path d="M90.5282 26.0393C90.0561 26.0393 89.6596 25.8878 89.3385 25.5847C89.0364 25.2627 88.8853 24.8648 88.8853 24.3913C88.8853 23.9366 89.0364 23.5577 89.3385 23.2546C89.6596 22.9516 90.0561 22.8 90.5282 22.8C90.9814 22.8 91.3685 22.9516 91.6896 23.2546C92.0106 23.5577 92.1711 23.9366 92.1711 24.3913C92.1711 24.8648 92.0106 25.2627 91.6896 25.5847C91.3685 25.8878 90.9814 26.0393 90.5282 26.0393ZM89.3385 43.259V29.165H91.7179V43.259H89.3385Z" fill="black"/>
<path d="M102.177 43.6C100.874 43.6 99.694 43.2969 98.6366 42.6907C97.598 42.0845 96.7765 41.2321 96.1723 40.1333C95.568 39.0157 95.2658 37.7086 95.2658 36.212C95.2658 34.7344 95.5491 33.4463 96.1156 32.3475C96.701 31.2299 97.513 30.3679 98.5516 29.7618C99.6091 29.1366 100.837 28.824 102.234 28.824C103.556 28.824 104.708 29.1177 105.69 29.7049C106.672 30.2922 107.436 31.0878 107.984 32.0918C108.55 33.0769 108.834 34.1851 108.834 35.4164C108.834 35.6816 108.834 35.89 108.834 36.0415C108.834 36.1931 108.824 36.4299 108.805 36.7519H97.6169C97.6735 37.6801 97.8907 38.5137 98.2683 39.2525C98.6649 39.9723 99.1936 40.5406 99.8546 40.9574C100.534 41.3741 101.309 41.5825 102.177 41.5825C103.159 41.5825 103.981 41.3552 104.642 40.9005C105.302 40.4459 105.784 39.8302 106.086 39.0536H108.437C108.192 39.925 107.786 40.7016 107.219 41.3836C106.653 42.0656 105.945 42.6055 105.095 43.0033C104.264 43.4011 103.291 43.6 102.177 43.6ZM97.6452 34.9049H106.483C106.426 33.6357 105.992 32.6412 105.18 31.9213C104.368 31.2015 103.367 30.8415 102.177 30.8415C101.044 30.8415 100.034 31.192 99.1464 31.8929C98.2778 32.5749 97.7774 33.5789 97.6452 34.9049Z" fill="black"/>
</svg>
