<svg xmlns="http://www.w3.org/2000/svg" viewBox="89 78 284 122">
<path d="M140.38 90.4209C137.146 96.015 136.534 97.8506 136.097 103.27C135.834 106.766 136.009 111.137 136.534 113.06C137.583 116.643 137 117.5 135.747 116.993C134.5 116.5 130.59 115.682 115.119 115.332C104.193 115.07 95.1021 114.983 94.9273 114.983C94.7525 115.07 96.5881 117.692 98.8607 120.839C101.133 123.986 113.895 141.73 127.094 160.26L151.044 194L152.53 191.203C153.316 189.63 156.201 184.21 158.998 179.141C161.707 174.071 165.116 167.428 166.602 164.369C168.788 159.823 169.487 159.037 170.273 160.085C170.798 160.785 177.091 168.739 184.346 177.655L197.458 194L199.031 192.077C199.905 190.941 202.178 186.92 204.101 183.161C208.209 174.858 208.558 169.351 205.674 162.533L203.838 158.25L222.544 130.017C232.858 114.458 243.172 98.8121 245.532 95.2284C247.892 91.6446 250.514 87.7986 251.389 86.8371L253.137 84.9142H237.054C216.6 84.8267 211.268 85.8757 203.751 91.6446C197.37 96.3647 194.136 101.085 186.007 116.818L179.976 128.531L178.402 126.521C177.441 125.384 175.605 123.112 174.294 121.451C161.97 106.154 146.061 85.8756 145.712 84.9142C144.925 82.9912 144.226 83.7778 140.38 90.4209ZM241.861 91.6446C240.987 92.2565 220.009 123.374 208.384 141.38C201.828 151.519 199.5 153.5 198.769 152.044C198.5 151.5 197.5 150 196.583 148.722C195.36 147.411 192.912 144.352 191.077 141.817C187.843 137.272 187 137.5 186.531 138.233C186.042 139 185.5 140 185.046 140.856C184.172 142.5 183.734 142.604 186.269 145.313C191.514 150.908 198.769 160.61 200.08 163.669C201.915 168.214 201.741 174.945 199.555 180.102C198.506 182.462 197.458 184.385 197.108 184.298C196.846 184.298 192.3 178.704 186.968 171.973C181.724 165.155 176.217 158.337 174.906 156.764L172.371 153.792L174.994 149.247C176.392 146.712 179.626 140.681 182.161 135.873C200.08 101.784 202.964 97.5884 209.957 94.3543C212.23 93.3054 214.852 92.0817 215.813 91.6446C217.474 90.8579 240.375 90.0713 241.948 90.7705C242.298 90.9454 242.298 91.295 241.861 91.6446ZM154.278 105.28C158.823 111.049 165.728 119.79 169.662 124.685L176.917 133.688L173.245 141.03C171.148 145.139 169.225 148.46 168.875 148.46C168.35 148.548 163.63 142.691 148.334 123.199C142.303 115.507 140.729 111.137 141.254 104.406C141.778 99.3366 144.313 92.7809 145.362 94.0046C145.712 94.4417 149.732 99.5114 154.278 105.28ZM137.932 123.199C142.652 125.559 146.498 129.58 156.026 141.992C159.61 146.625 163.193 151.257 164.155 152.394C165.728 154.404 165.728 154.491 161.97 161.309C159.959 165.155 156.463 171.711 154.278 175.994C150.956 182.462 150.17 183.511 149.383 182.2C148.946 181.326 147.11 178.791 145.449 176.431C143.789 174.071 140.467 169.351 138.02 165.942C135.66 162.446 130.24 154.928 126.045 149.072C121.849 143.216 117.129 136.747 115.556 134.562C114.07 132.377 111.273 128.618 109.437 126.171C107.602 123.724 106.116 121.451 106.116 121.101C106.116 120.664 112.322 120.577 119.926 120.752C132.426 121.014 133.999 121.276 137.932 123.199Z" fill="black"/>
<path d="M223.107 149.098C221.927 149.098 220.936 148.719 220.133 147.962C219.378 147.157 219 146.162 219 144.978C219 143.842 219.378 142.894 220.133 142.137C220.936 141.379 221.927 141 223.107 141C224.24 141 225.208 141.379 226.011 142.137C226.813 142.894 227.214 143.842 227.214 144.978C227.214 146.162 226.813 147.157 226.011 147.962C225.208 148.719 224.24 149.098 223.107 149.098ZM220.133 192.148V156.913H226.081V192.148H220.133Z" fill="black"/>
<path d="M236.438 192.148V156.913H241.82L242.174 163.235C243.307 161.009 244.936 159.257 247.06 157.978C249.185 156.699 251.592 156.06 254.283 156.06C258.438 156.06 261.742 157.339 264.197 159.896C266.699 162.406 267.95 166.29 267.95 171.546V192.148H262.002V172.186C262.002 168.539 261.247 165.792 259.736 163.945C258.225 162.098 255.959 161.175 252.938 161.175C249.917 161.175 247.391 162.288 245.361 164.514C243.378 166.692 242.387 169.818 242.387 173.891V192.148H236.438Z" fill="black"/>
<path d="M277.032 192.148V156.913H282.413L282.767 163.235C283.9 161.009 285.529 159.257 287.654 157.978C289.778 156.699 292.186 156.06 294.877 156.06C299.031 156.06 302.336 157.339 304.79 159.896C307.293 162.406 308.544 166.29 308.544 171.546V192.148H302.595V172.186C302.595 168.539 301.84 165.792 300.329 163.945C298.819 162.098 296.552 161.175 293.531 161.175C290.51 161.175 287.984 162.288 285.954 164.514C283.971 166.692 282.98 169.818 282.98 173.891V192.148H277.032Z" fill="black"/>
<path d="M321.236 149.098C320.056 149.098 319.065 148.719 318.262 147.962C317.507 147.157 317.129 146.162 317.129 144.978C317.129 143.842 317.507 142.894 318.262 142.137C319.065 141.379 320.056 141 321.236 141C322.369 141 323.337 141.379 324.14 142.137C324.942 142.894 325.343 143.842 325.343 144.978C325.343 146.162 324.942 147.157 324.14 147.962C323.337 148.719 322.369 149.098 321.236 149.098ZM318.262 192.148V156.913H324.21V192.148H318.262Z" fill="black"/>
<path d="M350.359 193C347.101 193 344.151 192.242 341.507 190.727C338.911 189.211 336.857 187.08 335.346 184.333C333.836 181.539 333.08 178.271 333.08 174.53C333.08 170.836 333.789 167.616 335.205 164.869C336.668 162.075 338.698 159.92 341.295 158.404C343.938 156.842 347.007 156.06 350.5 156.06C353.805 156.06 356.685 156.794 359.14 158.262C361.595 159.73 363.507 161.719 364.876 164.23C366.292 166.692 367 169.463 367 172.541C367 173.204 367 173.725 367 174.104C367 174.483 366.976 175.075 366.929 175.88H338.958C339.1 178.2 339.642 180.284 340.587 182.131C341.578 183.931 342.9 185.352 344.552 186.393C346.252 187.435 348.187 187.956 350.359 187.956C352.814 187.956 354.867 187.388 356.52 186.251C358.172 185.115 359.376 183.576 360.131 181.634H366.009C365.395 183.812 364.38 185.754 362.964 187.459C361.547 189.164 359.777 190.514 357.653 191.508C355.575 192.503 353.144 193 350.359 193ZM339.029 171.262H361.122C360.981 168.089 359.895 165.603 357.865 163.803C355.835 162.004 353.333 161.104 350.359 161.104C347.526 161.104 345.001 161.98 342.782 163.732C340.61 165.437 339.359 167.947 339.029 171.262Z" fill="black"/>
</svg>
